<?xml version="1.0" encoding="UTF-8"?>
<svg width="48px" height="48px" viewBox="0 0 48 48" version="1.1" xmlns="http://www.w3.org/2000/svg" xmlns:xlink="http://www.w3.org/1999/xlink">
    <!-- Generator: Sketch 56.3 (81716) - https://sketch.com -->
    <title>Icons_Footer_Blog</title>
    <desc>Created with Sketch.</desc>
    <g id="Icons_Footer_Blog" stroke="none" stroke-width="1" fill="none" fill-rule="evenodd">
        <rect id="Bound" x="0" y="0" width="48" height="48"></rect>
        <path d="M24,6 C14.059,6 6,14.06 6,24 C6,33.941 14.059,42 24,42 C33.94,42 42,33.941 42,24 C42,14.06 33.94,6 24,6 Z M27.512,21 C27.512,19.934 26.731,19 25.483,19 L21,19 L21,23 L25.482,23 C26.73,23 27.512,22.118 27.512,21 Z M25.639,26 L21,26 L21,30 L25.639,30 C27.018,30 27.85,29.248 27.85,28 C27.85,26.908 27.068,26 25.639,26 Z M26.574,33 L17,33 L17,16 L26.289,16 C29.592,16 31.281,17.962 31.281,20.276 C31.281,22.434 29.929,23.844 28.291,24.182 C30.162,24.469 31.619,26.198 31.619,28.356 C31.619,30.983 29.902,33 26.574,33 L26.574,33 L26.574,33 Z" id="Shape" fill="#FFFFFF" fill-rule="nonzero"></path>
    </g>
</svg>